#N canvas 827 239 527 327 12;
#N canvas 0 0 450 250 (subpatch) 0;
#X array array1 155944 float 4;
#X coords 0 1 155943 -1 200 140 1;
#X restore 812 158 graph;
#X obj 125 479 wavesetstepper~ array1, f 29;
#X obj 125 561 dac~;
#X msg 28 53 set array1;
#X floatatom 125 231 6 0 0 0 - - - 16;
#X floatatom 160 273 7 0 0 0 - - - 16;
#X floatatom 196 315 7 0 0 0 - - - 16;
#X floatatom 232 359 6 0 1 0 - - - 16;
#X msg 28 90 size;
#X obj 812 115 soundfiler;
#X obj 812 53 loadbang;
#X msg 812 84 read -resize ../sound/bell.aiff array1;
#X text 104 52 sets the array to read and reanalises its wavesets;
#X floatatom 214 584 5 0 0 0 - - - 12;
#X text 72 89 outputs the number of wavesets at the second outlet;
#X obj 304 521 numbox~ 4 15 100 #e3dfd9 #5a5a5a 10 0 0 0;
#X text 378 511 sets one sample to 1 when the waveset is reset to to the starting waveset;
#X text 256 583 outlet for the number of wavesets in the array;
#X obj 28 12 bng 25 250 50 0 empty empty empty 17 7 0 10 #e3dfd9 #5a5a5a #5a5a5a;
#X floatatom 268 401 7 0 1 0 - - - 16;
#X floatatom 304 441 9 0 1 0 - - - 16;
#X obj 304 632 oscope~ 130 130 256 3 128 -1 1 0 0 0 0 255 255 255 25 25 25 98 98 98 0 empty;
#X text 175 230 (0 - inf) sets the index of the waveset from where to start playing;
#X text 221 259 (-inf - +inf) sets the waveset increment. values between -1 and 1 result in waveset repetition;
#X text 256 307 (0 - inf) sets how many wavesets are played before resetting to the starting waveset;
#X text 291 351 (0 - 1) sets the rate at which wavesets are omitted. 1 means all wavesets are played \, 0 means none.;
#X text 329 393 (0 - 1) first boundary for waveset filtering. A low value means short wavesets are still playing;
#X text 388 431 (0 - 1) second boundary for waveset filtering. A high value means long wavesets are still playing;
#X obj 457 632 pulsecount~;
#X obj 457 668 numbox~ 4 15 100 #e3dfd9 #5a5a5a 10 0 0 0;
#X msg 28 182 reset;
#X obj 101 639 bng 25 250 50 0 empty empty empty 17 7 0 10 #191919 #ffffff #ffffff;
#X floatatom 156 632 12 0 0 0 - - - 16;
#X obj 210 819 writesf~ 2;
#X obj 101 779 delay 3000;
#X msg 101 750 stop;
#X msg 101 722 start;
#X msg 101 693 open /tmp/test.wav;
#X msg 28 133 sort;
#X text 72 132 sorts the wavesets by frequency making the waveset at the index 0 the highest;
#X text 80 181 resets the wavesets to the original order;
#X connect 1 0 2 0;
#X connect 1 0 2 1;
#X connect 1 0 33 0;
#X connect 1 0 33 1;
#X connect 1 1 13 0;
#X connect 1 2 15 0;
#X connect 3 0 1 0;
#X connect 4 0 1 0;
#X connect 5 0 1 1;
#X connect 6 0 1 2;
#X connect 7 0 1 3;
#X connect 8 0 1 0;
#X connect 10 0 11 0;
#X connect 10 0 3 0;
#X connect 11 0 9 0;
#X connect 13 0 6 0;
#X connect 15 0 21 0;
#X connect 15 0 28 0;
#X connect 18 0 3 0;
#X connect 18 0 8 0;
#X connect 19 0 1 4;
#X connect 20 0 1 5;
#X connect 28 0 29 0;
#X connect 30 0 1 0;
#X connect 31 0 37 0;
#X connect 31 0 36 0;
#X connect 31 0 35 0;
#X connect 32 0 34 1;
#X connect 34 0 33 0;
#X connect 35 0 34 0;
#X connect 36 0 33 0;
#X connect 37 0 33 0;
#X connect 38 0 1 0;
